<svg height="402pt" viewBox="1 0 402 402.696" width="402pt" xmlns="http://www.w3.org/2000/svg"><path d="m161.546875 304.488281h80.601563v78.363281h-80.601563zm0 0" fill="#7b7b7b"/><path d="m7.066406 60.449219h389.566406v255.234375h-389.566406zm0 0" fill="#494342"/><path d="m33.929688 87.316406h335.835937v201.5h-335.835937zm0 0" fill="#0f71c7"/><path d="m107.8125 53.734375 94.035156 47.015625 94.03125-47.015625-94.03125-47.015625zm0 0" fill="#ad2943"/><path d="m295.878906 53.734375v94.035156l-94.03125 47.015625v-94.035156zm0 0" fill="#942339"/><path d="m107.8125 53.734375v94.035156l94.035156 47.015625v-94.035156zm0 0" fill="#ee3446"/><path d="m289.164062 396.285156h-174.632812l47.015625-26.867187h80.601563zm0 0" fill="#494342"/><path d="m201.847656 201.5c-1.03125 0-2.058594-.234375-3.003906-.707031l-94.035156-47.019531c-2.273438-1.136719-3.710938-3.460938-3.710938-6.007813 0-2.542969 1.4375-4.871094 3.710938-6.007813l94.035156-47.015624c1.890625-.945313 4.117188-.945313 6.007812 0l94.035157 47.015624c2.273437 1.136719 3.710937 3.464844 3.710937 6.007813 0 2.546875-1.4375 4.871094-3.710937 6.007813l-94.035157 47.019531c-.945312.472656-1.972656.707031-3.003906.707031zm-79.015625-53.730469 79.015625 39.503907 79.011719-39.503907-79.011719-39.507812zm0 0"/><path d="m201.847656 107.46875c-1.03125 0-2.058594-.238281-3.003906-.710938l-94.035156-47.015624c-2.273438-1.136719-3.710938-3.464844-3.710938-6.007813 0-2.546875 1.4375-4.871094 3.710938-6.007813l94.035156-47.019531c1.890625-.941406 4.117188-.941406 6.007812 0l94.035157 47.019531c2.273437 1.136719 3.710937 3.460938 3.710937 6.007813 0 2.542969-1.4375 4.871094-3.710937 6.007813l-94.035157 47.015624c-.945312.472657-1.972656.710938-3.003906.710938zm-79.015625-53.734375 79.015625 39.507813 79.011719-39.507813-79.011719-39.503906zm0 0"/><path d="m201.847656 201.5c-1.226562 0-2.453125-.335938-3.53125-1.003906-1.976562-1.222656-3.183594-3.382813-3.183594-5.710938v-94.035156c0-2.542969 1.433594-4.871094 3.710938-6.007812l94.035156-47.015626c2.078125-1.039062 4.550782-.933593 6.53125.292969 1.980469 1.222657 3.1875 3.386719 3.1875 5.714844v94.03125c0 2.546875-1.4375 4.871094-3.710937 6.007813l-94.035157 47.019531c-.949218.472656-1.976562.707031-3.003906.707031zm6.71875-96.597656v79.015625l80.597656-40.300781v-79.015626zm0 0"/><path d="m201.847656 201.5c-1.027344 0-2.058594-.234375-3.003906-.707031l-94.035156-47.019531c-2.273438-1.136719-3.710938-3.460938-3.710938-6.007813v-94.03125c0-2.328125 1.207032-4.488281 3.183594-5.714844 1.984375-1.226562 4.453125-1.328125 6.535156-.292969l94.035156 47.015626c2.273438 1.136718 3.710938 3.464843 3.710938 6.007812v94.035156c0 2.328125-1.207031 4.488282-3.183594 5.710938-1.078125.667968-2.304687 1.003906-3.53125 1.003906zm-87.316406-57.882812 80.601562 40.296874v-79.011718l-80.601562-40.300782zm0 0"/><path d="m195.132812 6.71875h13.433594v94.03125h-13.433594zm0 0"/><path d="m396.632812 322.402344h-389.566406c-3.710937 0-6.71875-3.003906-6.71875-6.71875v-255.234375c0-3.707031 3.007813-6.714844 6.71875-6.714844h100.75v13.433594h-94.035156v241.800781h376.132812v-241.800781h-94.035156v-13.433594h100.753906c3.710938 0 6.714844 3.007813 6.714844 6.71875v255.230469c0 3.714844-3.003906 6.71875-6.714844 6.71875zm0 0"/><path d="m369.765625 295.535156h-335.835937c-3.707032 0-6.714844-3.003906-6.714844-6.71875v-201.5c0-3.707031 3.007812-6.714844 6.714844-6.714844h73.882812v13.433594h-67.164062v188.066406h322.398437v-188.066406h-67.167969v-13.433594h73.882813c3.714843 0 6.71875 3.007813 6.71875 6.714844v201.5c0 3.714844-3.003907 6.71875-6.714844 6.71875zm0 0"/><path d="m242.148438 376.132812h-80.601563c-3.707031 0-6.714844-3.003906-6.714844-6.714843v-53.734375c0-3.714844 3.007813-6.71875 6.714844-6.71875h80.601563c3.710937 0 6.714843 3.003906 6.714843 6.71875v53.734375c0 3.710937-3.003906 6.714843-6.714843 6.714843zm-73.882813-13.433593h67.164063v-40.296875h-67.164063zm0 0"/><path d="m289.164062 403h-174.632812c-3.046875 0-5.710938-2.046875-6.488281-4.992188-.785157-2.945312.515625-6.046874 3.15625-7.554687l47.015625-26.867187c1.015625-.578126 2.167968-.886719 3.335937-.886719h80.597657c1.167968 0 2.316406.308593 3.332031.886719l47.019531 26.867187c2.640625 1.507813 3.941406 4.609375 3.160156 7.554687-.78125 2.945313-3.453125 4.992188-6.496094 4.992188zm-149.339843-13.433594h124.046875l-23.507813-13.433594h-77.03125zm0 0"/></svg>